<svg xmlns="http://www.w3.org/2000/svg" width="128" height="128" viewBox="0 0 128 128"><title>github</title><path d="M80.6,115c-2.6.5-3.5-1.2-3.5-2.5V98.1c0-5-1.7-8.1-3.5-9.7,11.7-1.2,23.9-5.7,23.9-25.8a20.5,20.5,0,0,0-5.4-14.1c.5-1.3,2.3-6.7-.6-13.9C87.1,33.3,77.1,40,77.1,40A48.2,48.2,0,0,0,64,38.2,52.4,52.4,0,0,0,50.9,40s-10-6.7-14.5-5.4c-2.7,7.3-.9,12.6-.4,13.9a20.5,20.5,0,0,0-5.4,14.1c0,20,12.2,24.6,23.9,25.9-1.5,1.3-2.8,3.6-3.3,7-3,1.3-10.7,3.7-15.2-4.4a11.3,11.3,0,0,0-8-5.4c-5.1-.1-.4,3.2-.4,3.2,3.4,1.6,5.9,7.6,5.9,7.6,3.1,9.4,17.6,6.2,17.6,6.2,0,4.4.1,8.5.1,9.8s-1,3-3.6,2.5a52.4,52.4,0,1,1,33,0Z"/></svg>
