<?xml version="1.0" encoding="utf-8"?>
<!-- Generator: Adobe Illustrator 23.0.0, SVG Export Plug-In . SVG Version: 6.00 Build 0)  -->
<svg version="1.1" id="Layer_1" xmlns="http://www.w3.org/2000/svg" xmlns:xlink="http://www.w3.org/1999/xlink" x="0px" y="0px"
	 viewBox="0 0 797.2 566.3" style="enable-background:new 0 0 797.2 566.3;" xml:space="preserve">
<style type="text/css">
	.st0{fill:#2D4A7F;}
</style>
<g>
	<path class="st0" d="M624.1,403.1c-4.1-36.5-20-67.6-47.3-92.2c-32.5-29.3-70.8-41.4-114.4-36.1c-3.4,0.4-5.3-0.3-6.9-3.5
		c-8.6-17.6-20-33.2-34.6-46.3c-44.1-39.4-95.1-52.8-152.3-36.9c-43.9,12.2-76.4,39.7-97.9,79.8c-2.7,5-5.5,6.1-10.9,6.1
		c-12.3,0-24.8-0.1-36.9,2.1C52.8,288.6,0.4,350.4,0,423.8c-0.1,20.8,16.1,37.5,36,37.3c23.4-0.2,37.1-19.4,36.2-37.3
		c-0.6-12.9,2.8-25.1,8.9-36.6c13-24.4,42.6-45.5,81.3-40.1c27.2,3.8,54.6-11.5,67.1-36.1c2.7-5.4,5.5-10.7,8.8-15.7
		c20.9-31.8,56.5-46.6,92.7-38.2c27.7,6.4,46.8,23.7,59.8,48.5c4.4,8.3,8.6,16.8,13.5,24.9c6.4,10.5,16.2,16,28.3,16.6
		c14,0.6,28,0.9,42,0.7c15.7-0.3,30.5,2.4,44,10.5c26.8,16,39.7,49.4,31.3,80.6c-8.5,31.5-35.9,52.9-68.5,53
		c-35,0.1-70.1,0.1-105.1,0c-3.7,0-7.5-0.4-11.1-1.3c-17.6-4.4-29.1-19.6-29.2-38.6c-0.1-23.3,0-46.6,0-69.9c0-23.5,0-46.9,0-70.4
		c0-8-3.9-11.9-12-12.1c-3.3-0.1-6.5,0-9.8,0c-13.4-0.1-24.8,4.6-34.3,14.1c-14.8,14.9-21.7,33.2-21.9,53.8
		c-0.3,41.6-0.1,83.1-0.1,124.7c0,5,0.3,10.1,0.9,15.1c3.4,28.7,28.8,54.3,57.5,56.9c15,1.3,30.3,0.8,45.4,0.8
		c42.2-0.1,84.4-0.2,126.6-0.5c7.1-0.1,14.3-0.7,21.3-2.1C578.2,548.1,633,482.8,624.1,403.1z"/>
	<path class="st0" d="M790,247.6c-4.7-0.2-9.4-0.5-14.1-0.7c-15.3-0.6-24.3-11.5-24.4-27.9c0-36.8,0.3-73.7-0.2-110.5
		c-0.2-12.9-1.4-26.1-4-38.7c-5.5-27.5-20.2-48.4-46.8-59.5c-11.5-4.8-23.6-7.7-36-8c-16.7-0.5-33.4-0.1-50.4-0.1
		c0,23.7,0,47.7,0,71.8c6.3,0.4,12.3,0.7,18.3,1.2c17,1.4,29.3,11.7,33.3,28.2c1.3,5.3,1.9,10.9,1.9,16.4c0.2,24.4,0,48.9,0.1,73.3
		c0.1,13.8,0,27.7,1.1,41.5c1.8,22.8,12.1,39.9,34.7,47.8c0.9,0.3,1.7,0.8,3.1,1.6c-2.5,1-4.3,1.8-6.2,2.6
		c-14.8,5.8-24.9,16.3-28.5,31.7c-2.3,9.7-3.7,19.9-3.9,29.9c-0.7,35,0.1,70.1-1.3,105.1c-1.5,40.3-18.7,73.7-49.2,100
		c-4.5,3.9-4.9,7.7-3.9,13.2c24.2-0.8,48.3,1.8,72.1-4.1c30.4-7.6,50.3-26,59.4-56.1c4.7-15.6,6.1-31.6,6.2-47.8
		c0.2-36.7,0-73.3,0.1-110c0-18.4,9.5-27.7,27.8-27.7c6,0,12,0,18.2,0c0-24.5,0-48.4,0-73C794.5,247.6,792.3,247.7,790,247.6z"/>
	<path class="st0" d="M342.7,139.2c0-8.7-0.2-16.5,0-24.3c0.6-23.3,14.5-38,37.7-39.9c5.3-0.4,10.6-0.7,15.8-1c0-24.4,0-48.3,0-74
		c-22.2,1.4-44,1.4-65.3,4.5c-31.1,4.5-53.6,21.5-64.4,52c-10.2,28.6-7.9,58.3-7,88.5C286.7,135.8,314.3,133.3,342.7,139.2z"/>
	<path class="st0" d="M496.5,147.9c-19.4,0-38.8-0.1-58.2,0.1c-2.1,0-5.8,0.8-6,1.9c-0.9,4-1.3,8.3-0.5,12.3c0.2,1.3,4.5,2.5,7,2.5
		c24.8,0.2,49.5,0.1,74.3,0.1c24.9,0,49.8,0,74.8-0.1c2.1,0,5.9-0.7,6.1-1.6c0.8-4,1.2-8.4,0.3-12.3c-0.3-1.4-4.5-2.7-6.9-2.7
		C557.1,147.9,526.8,147.9,496.5,147.9z"/>
	<path class="st0" d="M437.9,112.3c16.9,0,33.9,0,50.8,0c17.1,0,34.2,0.1,51.3-0.1c1.9,0,5.4-0.8,5.6-1.8c0.7-4,1.2-8.4,0.3-12.3
		c-0.3-1.4-4.8-2.6-7.4-2.6c-33.1-0.2-66.2-0.1-99.2-0.1c-1.3,0-2.9-0.4-3.8,0.2c-1.7,1.1-3.3,2.7-4.2,4.4c-0.7,1.5-0.2,3.5-0.2,5.3
		C431.2,111.2,432.2,112.2,437.9,112.3z"/>
	<path class="st0" d="M484.3,217.2c12.2-0.2,24.4-0.1,36.6-0.1c12,0,24.1,0,36.1,0c7.3,0,7.7-0.4,7.7-7.8c0-1.1,0-2.3,0-3.4
		c0-3.4-1.6-5.2-5-5.2c-25.4,0-50.8,0-76.2,0c-3.5,0-5,1.8-5.3,5c-0.1,1.8,0,3.6-0.1,5.4C478,215.4,479.8,217.3,484.3,217.2z"/>
</g>
</svg>
