<svg xmlns="http://www.w3.org/2000/svg" viewBox="0 0 130 130"><title>jupyter-lab</title><path d="M28.64,41a42.65,42.65,0,0,1,7-8.25A41.56,41.56,0,0,1,46.9,25.31a43.89,43.89,0,0,1,55,16.05c.21.32.37.66.63,1.12a1.84,1.84,0,0,1-1.22-.63c-6.29-4.91-13.5-7.8-21.19-9.68a73,73,0,0,0-22.59-1.5,58.24,58.24,0,0,0-13.22,2.69A47.6,47.6,0,0,0,29.41,40.9a5.15,5.15,0,0,1-.56.33Zm38,59.12c-13.36.38-25.83-2.66-37.18-9.91a43,43,0,0,0,42,18.27c13.68-2,24.06-9.28,31.31-21C92.22,96.2,80,99.74,66.61,100.13Z" fill="#f07526"/><path d="M81.69,70.26c0-.65,0-1.31,0-2h0V66.58a3.87,3.87,0,0,1,2.65-4.08,4,4,0,0,1,4.4,1c2.4,2.2,2.11,7.91-.44,9.88a3.88,3.88,0,0,1-4.31.48A3.67,3.67,0,0,1,81.69,70.26ZM61,68.93a10.47,10.47,0,0,0-2.65.7,2.81,2.81,0,0,0-1.51,3,2.31,2.31,0,0,0,2.32,2.07,3.82,3.82,0,0,0,3.86-4.06C63.06,68.66,63.06,68.67,61,68.93ZM113.66,65A48.71,48.71,0,1,1,65,16.29,48.7,48.7,0,0,1,113.66,65ZM29.32,40.88a47.78,47.78,0,0,1,15-7.55,59.52,59.52,0,0,1,13.24-2.69,73.08,73.08,0,0,1,22.6,1.5C87.81,34,95,36.92,101.32,41.83a1.85,1.85,0,0,0,1.22.64c-.26-.47-.43-.81-.64-1.12A43.92,43.92,0,0,0,46.83,25.28,41.26,41.26,0,0,0,35.6,32.74a41.83,41.83,0,0,0-7,8.26l.21.21A5.15,5.15,0,0,0,29.32,40.88ZM74.86,75.8c0,3.13,0,3.13,3,3.12,2.56,0,2.56,0,2.77-2.61,0-.07.07-.13.14-.26,1.05,1.16,1.79,2.43,3.55,2.94a9.54,9.54,0,0,0,11.89-5.94,15,15,0,0,0-.05-10.55,7.83,7.83,0,0,0-4.32-4.73,8.76,8.76,0,0,0-10.21,2c0-3.72-.05-7.23,0-10.74,0-1.14-.33-1.41-1.39-1.33a27.78,27.78,0,0,1-4.08,0c-1.11-.08-1.36.27-1.36,1.36Q74.93,62.43,74.86,75.8ZM61.8,64.61a16.41,16.41,0,0,0-6.31,1.11c-2.91,1.11-4.91,3-5.31,6.26a6.66,6.66,0,0,0,4,6.86,8.54,8.54,0,0,0,9.32-2c.28,2.08.28,2.08,2.32,2.08h1.32c.83,0,1.87.28,2.44-.11s0-1.51,0-2.31a16.33,16.33,0,0,0,0-2c0-3.11,0-6.23,0-9.34a8,8,0,0,0-6.89-8,20.77,20.77,0,0,0-9.08.81c-2.14.65-2.12.71-1.43,2.79.1.29.2.58.28.88.43,1.52.42,1.5,1.91.85a10,10,0,0,1,5.89-.83,2.82,2.82,0,0,1,2.34,1.68C63,64.14,62.93,64.64,61.8,64.61ZM46.17,48.93c0-1-.28-1.26-1.25-1.21-1.53.08-3.07.05-4.6,0-.63,0-.82.18-.82.81q0,14.76,0,29.5c0,.71.23.9.91.88,1.53,0,3.07-.07,4.61,0,.93,0,1.16-.26,1.15-1.17,0-4.78,0-9.57,0-14.35S46.11,53.75,46.17,48.93Zm56.49,38.58c-10.48,8.71-22.75,12.26-36.11,12.64S40.7,97.5,29.34,90.23a43,43,0,0,0,42,18.29C85,106.52,95.41,99.24,102.66,87.51Z" fill="#050505"/><path d="M65,13a52,52,0,1,0,52,52A52,52,0,0,0,65,13Zm0,100.71A48.71,48.71,0,1,1,113.66,65,48.71,48.71,0,0,1,65,113.71Z" fill="#eee"/><path d="M77.91,78.92c2.56,0,2.56,0,2.77-2.61,0-.07.07-.13.14-.26,1.05,1.16,1.79,2.43,3.55,2.94a9.54,9.54,0,0,0,11.89-5.94,15,15,0,0,0-.05-10.55,7.83,7.83,0,0,0-4.32-4.73,8.76,8.76,0,0,0-10.21,2c0-3.72-.05-7.23,0-10.74,0-1.14-.33-1.41-1.39-1.33a27.78,27.78,0,0,1-4.08,0c-1.11-.08-1.36.27-1.36,1.36q0,13.36,0,26.73C74.85,78.93,74.83,78.93,77.91,78.92Zm3.78-8.66c0-.65,0-1.31,0-2h0V66.58a3.87,3.87,0,0,1,2.65-4.08,4,4,0,0,1,4.4,1c2.4,2.2,2.11,7.91-.44,9.88a3.88,3.88,0,0,1-4.31.48A3.67,3.67,0,0,1,81.69,70.26ZM61.8,64.61a16.41,16.41,0,0,0-6.31,1.11c-2.91,1.11-4.91,3-5.31,6.26a6.66,6.66,0,0,0,4,6.86,8.54,8.54,0,0,0,9.32-2c.28,2.08.28,2.08,2.32,2.08h1.32c.83,0,1.87.28,2.44-.11s0-1.51,0-2.31a16.33,16.33,0,0,0,0-2c0-3.11,0-6.23,0-9.34a8,8,0,0,0-6.89-8,20.77,20.77,0,0,0-9.08.81c-2.14.65-2.12.71-1.43,2.79.1.29.2.58.28.88.43,1.52.42,1.5,1.91.85a10,10,0,0,1,5.89-.83,2.82,2.82,0,0,1,2.34,1.68C63,64.14,62.93,64.64,61.8,64.61Zm1.26,6.07a3.82,3.82,0,0,1-3.86,4.06,2.31,2.31,0,0,1-2.32-2.07,2.81,2.81,0,0,1,1.51-3,10.47,10.47,0,0,1,2.65-.7C63.06,68.67,63.06,68.66,63.06,70.68ZM46.17,48.93c-.06,4.82,0,9.65,0,14.48s0,9.57,0,14.35c0,.91-.22,1.22-1.15,1.17-1.54-.08-3.08-.05-4.61,0-.68,0-.91-.17-.91-.88q0-14.75,0-29.5c0-.63.19-.82.82-.81,1.53,0,3.07.07,4.6,0C45.89,47.67,46.18,47.91,46.17,48.93Z" fill="#fff"/></svg>