<svg xmlns="http://www.w3.org/2000/svg" viewBox="0 0 130 130"><title>jupyter</title><path d="M24.29,67.46c0,3.24-.26,4.3-.93,5.07a4,4,0,0,1-2.72,1l.26,1.85a6.4,6.4,0,0,0,4.25-1.53,7.44,7.44,0,0,0,1.39-2.62,7.3,7.3,0,0,0,.25-2.94V56.07h-2.5V67.46Zm18.46-1.55c0,1.38,0,2.61.11,3.68H40.72l-.15-2.2a5.17,5.17,0,0,1-4.5,2.52c-2.15,0-4.71-1.17-4.71-5.93V56.07h2.5v7.41c0,2.57.79,4.29,3,4.29a3.33,3.33,0,0,0,1.32-.25,3.46,3.46,0,0,0,1.13-.76,3.53,3.53,0,0,0,.75-1.14,3.62,3.62,0,0,0,.25-1.34V56.07H42.8v9.77Zm4.63-5.42c0-1.73,0-3.14-.11-4.42h2.26l.12,2.32a5.43,5.43,0,0,1,2.1-2,5.65,5.65,0,0,1,2.85-.64c3.37,0,5.9,2.76,5.9,6.88,0,4.86-3,7.28-6.33,7.28a5,5,0,0,1-2.43-.52,4.81,4.81,0,0,1-1.87-1.62h0v7.43H47.38V60.49Zm2.49,3.63a5.69,5.69,0,0,0,.12,1A3.82,3.82,0,0,0,53.69,68c2.61,0,4.15-2.13,4.15-5.22,0-2.71-1.45-5-4.06-5A4.23,4.23,0,0,0,51.06,59a4.28,4.28,0,0,0-1.19,2.76Zm14.87-8,3,8c.32.89.65,2,.87,2.76.26-.82.54-1.85.87-2.82l2.71-8.15h2.61l-3.71,9.86c-1.85,4.63-3,7-4.68,8.46a6.81,6.81,0,0,1-3,1.59l-.61-2.07a6.54,6.54,0,0,0,2.17-1.21A7.33,7.33,0,0,0,67,69.75a1.72,1.72,0,0,0,.2-.59,2.14,2.14,0,0,0-.16-.65L62,56.07h2.7ZM81.49,52.2v3.87h3.33v1.87H81.49v7.3c0,1.67.49,2.63,1.89,2.63a5.58,5.58,0,0,0,1.47-.17L85,69.55a6.41,6.41,0,0,1-2.25.34,3.59,3.59,0,0,1-1.49-.23A3.46,3.46,0,0,1,80,68.85a4.91,4.91,0,0,1-1-3.52V57.94H76.91V56.07H79V52.78Zm8,11.08a4.47,4.47,0,0,0,.25,1.85,4.28,4.28,0,0,0,1,1.57A4.3,4.3,0,0,0,94.17,68a9.07,9.07,0,0,0,3.71-.7l.42,1.85a11,11,0,0,1-4.53.83,6.22,6.22,0,0,1-2.67-.39,6.15,6.15,0,0,1-2.25-1.47,6.36,6.36,0,0,1-1.44-2.28,6.54,6.54,0,0,1-.35-2.67c0-4.07,2.43-7.3,6.39-7.3,4.45,0,5.56,3.89,5.56,6.37a11,11,0,0,1,0,1.15H89.43Zm7.26-1.8a3.51,3.51,0,0,0-2-3.68,3.45,3.45,0,0,0-1.45-.32,4.1,4.1,0,0,0-3.79,4Zm6-1.18c0-1.59,0-3-.11-4.23h2.1v2.71h.08a4.14,4.14,0,0,1,1.4-2.08,4.27,4.27,0,0,1,2.38-.89,2.89,2.89,0,0,1,.72,0v2.32a4.22,4.22,0,0,0-.87,0,3.55,3.55,0,0,0-2.3.95,3.47,3.47,0,0,0-1.09,2.2,6.2,6.2,0,0,0-.11,1.14v7.17H102.7V60.32Z" fill="#4e4e4e"/><path d="M101.68,18.9a6.25,6.25,0,0,1-3.54,6,6.28,6.28,0,0,1-8.81-4.12,6.31,6.31,0,0,1,.18-3.65,6.15,6.15,0,0,1,2.19-2.93A6.22,6.22,0,0,1,95.15,13a6.13,6.13,0,0,1,2.4.34,6.51,6.51,0,0,1,2.09,1.24,6.2,6.2,0,0,1,2,4.31Z" fill="#767677"/><path d="M65.07,91.41c-16.66,0-31.31-6-38.88-14.81a41.45,41.45,0,0,0,77.76,0C96.4,85.43,81.81,91.41,65.07,91.41Z" fill="#f37726"/><path d="M65.07,34C81.73,34,96.38,40,104,48.79a41.45,41.45,0,0,0-77.76,0C33.76,39.94,48.33,34,65.07,34Z" fill="#f37726"/><path d="M42.13,108.6a7.93,7.93,0,0,1-4.45,7.61,7.9,7.9,0,0,1-10.88-9.78,7.79,7.79,0,0,1,2.75-3.7,7.9,7.9,0,0,1,4.34-1.54,8,8,0,0,1,3,.44,7.84,7.84,0,0,1,4.45,4,7.81,7.81,0,0,1,.76,3Z" fill="#9e9e9e"/><path d="M28.08,32a4.55,4.55,0,0,1-4.62-5.3A4.52,4.52,0,0,1,26.91,23a4.57,4.57,0,0,1,5.6,4.25A4.61,4.61,0,0,1,28.08,32Z" fill="#616262"/></svg>