<?xml version="1.0" encoding="utf-8"?>
<!-- Generator: Adobe Illustrator 23.0.0, SVG Export Plug-In . SVG Version: 6.00 Build 0)  -->
<svg version="1.1"
	 id="svg1398" xmlns:cc="http://creativecommons.org/ns#" xmlns:dc="http://purl.org/dc/elements/1.1/" xmlns:rdf="http://www.w3.org/1999/02/22-rdf-syntax-ns#" xmlns:svg="http://www.w3.org/2000/svg"
	 xmlns="http://www.w3.org/2000/svg" xmlns:xlink="http://www.w3.org/1999/xlink" x="0px" y="0px" viewBox="0 0 83.5 75.2"
	 style="enable-background:new 0 0 83.5 75.2;" xml:space="preserve">
<style type="text/css">
	.st0{fill:url(#path2394-4_1_);}
	.st1{fill:url(#path2349-4_1_);}
</style>
<linearGradient id="path2394-4_1_" gradientUnits="userSpaceOnUse" x1="1027.3074" y1="-480.0621" x2="970.9052" y2="-679.46" gradientTransform="matrix(0.3146 0 0 -0.3146 -261.832 -141.3987)">
	<stop  offset="0" style="stop-color:#78C4FF"/>
	<stop  offset="1" style="stop-color:#D7AEFF"/>
</linearGradient>
<path id="path2394-4" class="st0" d="M38.4,68.1c-0.1-0.2-0.3-0.8-0.6-1.4c-0.2-0.6-0.5-1.2-0.6-1.3c-0.1-0.2-0.2-0.5-0.3-0.7
	c-0.1-0.2-0.2-0.5-0.3-0.6c-0.3-0.7-0.4-1-1.1-2.4c-0.4-0.8-1.6-3.2-2-4c-0.2-0.3-0.3-0.6-0.3-0.6c0,0,0.5-0.2,1.1-0.4
	c1.4-0.5,2.5-1,3.6-1.7c2.2-1.5,4.1-3.8,5.2-6.4c0.1-0.3,0.1-0.3,0.4-0.9c0.1-0.2,0.2-0.4,0.2-0.5c0-0.1,0.1-0.3,0.2-0.5
	c0.1-0.2,0.2-0.4,0.2-0.6c0.1-0.1,0.1-0.3,0.2-0.4c0-0.1,0.2-0.5,0.3-1c0.2-0.5,0.4-1.1,0.4-1.3c0.1-0.3,0.3-0.9,0.5-1.4
	c0.2-0.5,0.3-1,0.3-1.1c0.1-0.2,0.4-1.2,0.5-1.7c0.1-0.2,0.2-0.6,0.3-0.9c0.1-0.3,0.2-0.7,0.3-0.9c0.1-0.2,0.1-0.5,0.2-0.6
	c0.1-0.2,0.1-0.4,0.2-0.6c0-0.2,0.2-0.6,0.3-1c0.1-0.4,0.2-0.8,0.3-1c0-0.2,0.1-0.4,0.1-0.5c0.1-0.2,0.2-0.9,0.4-1.4
	c0.1-0.3,0.1-0.5,0.4-1.3c0-0.2,0.2-0.6,0.3-1c0.3-1.2,0.3-1.3,0.4-1.5c0-0.1,0.2-0.7,0.3-1.3c0.2-0.6,0.3-1.2,0.3-1.3
	c0-0.1,0.1-0.3,0.1-0.5c0-0.1,0.1-0.6,0.3-1.1c0.1-0.5,0.3-1,0.3-1.2c0-0.2,0.1-0.5,0.2-0.8c0.1-0.4,0.2-0.7,0.3-1.3
	c0.1-0.3,0.2-0.7,0.3-1.2c0-0.1,0.1-0.4,0.1-0.6c0-0.2,0.2-0.7,0.3-1.2c0.1-0.4,0.3-1.2,0.4-1.6c0.1-0.4,0.2-0.9,0.3-1
	c0-0.1,0.1-0.3,0.1-0.4c0-0.1,0-0.2,0.1-0.4c0.1-0.2,0.2-0.9,0.4-1.6c0.1-0.4,0.4-1.9,0.5-2.4c0-0.2,0.2-0.7,0.3-1.2
	c0.1-0.5,0.2-1.1,0.3-1.3c0-0.2,0.1-0.7,0.2-1.1c0.2-1.1,0.4-1.6,0.6-1.7c0.1-0.1,0.4,0.2,0.6,0.5c0.3,0.7,0.3,0.7,0.6,2
	c0.1,0.6,0.3,1.1,0.3,1.3c0,0.1,0.1,0.4,0.1,0.6c0,0.2,0.2,0.7,0.3,1.2s0.2,1,0.3,1.1c0.2,0.8,0.3,1.4,0.4,1.6
	c0,0.1,0.1,0.3,0.1,0.4c0,0.1,0,0.2,0.1,0.4c0,0.1,0.1,0.5,0.2,0.8c0.1,0.3,0.2,0.6,0.2,0.8c0.1,0.2,0.2,0.9,0.5,2.3
	c0,0.2,0.2,0.7,0.3,1.1c0.1,0.5,0.2,1,0.3,1.1c0,0.2,0.2,0.7,0.3,1.1c0.1,0.5,0.2,1,0.3,1.1c0.1,0.3,0.3,1.1,0.4,1.6
	c0,0.1,0.2,0.7,0.3,1.1c0.1,0.5,0.2,1,0.3,1.2c0,0.2,0.1,0.5,0.2,0.8c0.2,0.8,0.3,1.2,0.3,1.5c0,0.1,0.2,0.7,0.3,1.1
	c0.3,1.4,0.5,2,0.6,2.8c0,0.1,0.2,0.7,0.3,1.1c0.1,0.5,0.2,1,0.3,1.2c0,0.2,0.1,0.5,0.2,0.8s0.2,0.7,0.2,0.8c0,0.2,0.1,0.5,0.1,0.6
	c0.1,0.4,0.3,1.3,0.4,1.6c0.1,0.3,0.3,1.4,0.5,2.2c0.1,0.3,0.1,0.6,0.2,0.8c0.1,0.3,0.3,1.2,0.4,1.6c0,0.2,0.1,0.5,0.2,0.8
	c0.1,0.3,0.1,0.7,0.2,0.8c0,0.2,0.1,0.5,0.2,0.7c0,0.2,0.1,0.5,0.2,0.6c0,0.1,0,0.2,0,0.3c0,0-0.2,0.1-0.5,0.1
	c-0.4,0-1.5,0.2-2.4,0.4c-0.6,0.1-2,0.6-2.7,1c-1.5,0.7-2.7,1.6-4.2,2.8c-0.7,0.6-2.5,2.4-3.5,3.5c-0.3,0.3-0.7,0.7-0.9,0.9
	c-0.2,0.2-0.6,0.6-0.8,0.9c-0.3,0.3-0.5,0.6-0.5,0.6c0,0-0.2,0.3-0.5,0.5c-0.2,0.3-0.4,0.5-0.5,0.5c0,0-0.4,0.4-0.8,0.9
	c-0.4,0.5-0.8,0.9-0.8,0.9c0,0-0.2,0.3-0.5,0.5c-0.2,0.3-0.4,0.5-0.5,0.5c0,0-0.3,0.4-0.7,0.8c-1,1.1-2.9,3-3.8,3.8
	c-0.8,0.7-1,0.8-1.7,1.3c-0.5,0.4-1.6,1-1.7,1C38.5,68.5,38.4,68.3,38.4,68.1L38.4,68.1z"/>
<linearGradient id="path2349-4_1_" gradientUnits="userSpaceOnUse" x1="1007.8383" y1="-453.6601" x2="941.6105" y2="-702.9075" gradientTransform="matrix(0.3146 0 0 -0.3146 -261.832 -141.3987)">
	<stop  offset="0" style="stop-color:#1A6CFF"/>
	<stop  offset="1" style="stop-color:#C522FF"/>
</linearGradient>
<path id="path2349-4" class="st1" d="M34.8,36.4c0.4-0.6,0.7-1.1,0.7-1.2c0-0.1,0.2-0.3,0.3-0.5c0.1-0.2,0.2-0.3,0.2-0.4
	c0,0,0.1-0.3,0.3-0.5c0.2-0.3,0.5-0.8,0.7-1.1c0.2-0.3,0.4-0.6,0.4-0.7c0.1-0.1,0.3-0.5,0.7-1.2c0.2-0.3,0.4-0.8,0.6-1.1
	c0.5-1,3.4-6.8,3.4-6.9c0,0,0.2-0.4,0.4-0.8c0.2-0.4,0.4-0.8,0.4-0.8c0,0,0.1-0.2,0.2-0.5s0.2-0.5,0.3-0.6c0-0.1,0.1-0.3,0.2-0.4
	c0.4-0.9,1.1-2.7,1.1-2.7c0-0.2-0.1-0.1-0.4,0.4c-0.2,0.3-0.4,0.5-0.5,0.6c-0.1,0.1-0.2,0.3-0.3,0.4c-0.1,0.2-0.2,0.3-0.3,0.3
	c0,0-0.3,0.3-0.6,0.7c-1.2,1.4-3.3,3.4-4.2,3.8c-0.4,0.2-1,0.5-2.1,0.9c-0.2,0.1-1,0.4-1.7,0.6c-1.5,0.6-2.9,1.5-4.3,2.9
	c-0.8,0.7-1.9,2-2.5,2.8c-0.2,0.2-0.3,0.4-0.3,0.4c-0.2,0.2-0.8,1-0.7,1.1c0.1,0.1,1.1,0.9,1.8,1.4c0.3,0.2,0.6,0.4,0.6,0.5
	c0,0,0.2,0.2,0.5,0.3c0.2,0.2,0.4,0.3,0.5,0.4c0.1,0.1,0.9,0.7,1.1,0.8c0.1,0.1,0.8,0.6,1.5,1.1c0.7,0.5,1.3,1,1.4,1
	C34.1,37.4,34.3,37.2,34.8,36.4L34.8,36.4z M19.4,52.4c0.2-0.1,0.4-0.2,0.4-0.3c0,0,0.1-0.1,0.1-0.1c0.1,0,2.3-1.5,2.8-1.9
	c0.1-0.1,0.4-0.3,0.7-0.6c1.5-1.2,3.5-3,5.2-4.8c1.3-1.4,3.8-4.6,3.8-4.8c0-0.1-0.8-0.7-1.8-1.5c-1-0.7-1.9-1.4-2-1.5
	c-0.1-0.1-1.1-0.8-2.2-1.6c-2-1.5-2.2-1.6-2.5-1.4c0,0-0.2,0.1-0.3,0.2c-0.4,0.1-0.6,0.3-1.1,0.4c-0.2,0.1-0.4,0.2-0.4,0.2
	c0,0-0.2,0.1-0.3,0.1c-0.1,0.1-0.4,0.2-0.5,0.2c-0.1,0.1-0.3,0.1-0.3,0.1c0,0-0.2,0.1-0.4,0.2c-0.4,0.2-0.4,0.2-1,0.4
	c-0.2,0.1-0.4,0.2-0.4,0.2c-0.1,0-0.2,0.1-0.2,0.1c0,0-0.3,0.1-0.5,0.2c-0.2,0.1-0.5,0.2-0.6,0.3c-3.6,1.5-7.3,3-7.6,3.1
	c-0.2,0.1-0.4,0.2-0.5,0.2c0,0-0.1,0-0.2,0.1c-0.1,0-0.2,0.1-0.3,0.1c-0.5,0.2-0.8,0.3-1,0.4c-0.3,0.1-1,0.4-1.4,0.6
	c-0.1,0.1-0.3,0.1-0.3,0.1c0,0-0.2,0.1-0.4,0.2c-0.7,0.3-0.8,0.4-0.9,0.4c0,0-0.2,0.1-0.4,0.2C4.9,41.8,4.6,42,4.5,42
	c-0.1,0.1-0.2,0.1-0.2,0.2c0,0,0.5,0.4,1,0.8c0.6,0.4,1.1,0.8,1.2,0.8c0.1,0.1,0.2,0.1,0.2,0.1c0,0,0.1,0.1,0.2,0.1
	c0.1,0.1,0.7,0.5,1.3,1c2.8,2,4.7,3.4,4.9,3.6c0,0,0.7,0.5,1.4,1c0.7,0.5,1.4,1,1.4,1c0.4,0.4,2.8,2,2.9,2
	C18.9,52.6,19.1,52.5,19.4,52.4z M37.7,72c0.9-0.3,1.8-0.8,2.5-1.2c0.3-0.2,0.6-0.4,0.6-0.4c0.1,0,1.2-0.9,1.7-1.2
	c1.8-1.4,4.2-3.8,6.4-6.2c1-1.1,1.4-1.7,2-2.3c0.4-0.4,0.7-0.8,0.8-0.9c0,0,0.2-0.2,0.3-0.3c3.8-4.3,5.5-5.9,7.5-7.3
	c1.4-0.9,2.4-1.3,4-1.7c0.6-0.1,0.9-0.2,2.2-0.2c1.5,0,1.6,0,2.8,0.3c0.3,0.1,0.3,0.1,1,0.4c0.9,0.3,2.6,1.3,3.2,1.8
	c0.1,0.1,0.4,0.3,0.8,0.6c0.8,0.6,2.1,1.8,3.6,3.3c1.3,1.3,1.5,1.4,1.1,0.5c-0.3-0.8-0.5-1.1-0.8-1.8c-0.2-0.4-0.3-0.8-0.4-1
	c-0.1-0.2-0.3-0.8-0.6-1.4c-0.2-0.6-0.5-1.2-0.6-1.5c-0.1-0.2-0.2-0.4-0.2-0.5c0,0,0-0.1-0.1-0.2c-0.1-0.2-0.2-0.4-0.5-1.3
	c-0.2-0.4-0.3-0.9-0.4-0.9c0-0.1-0.1-0.4-0.2-0.6c-0.1-0.2-0.2-0.6-0.3-0.7c-0.1-0.1-0.3-0.8-0.6-1.5c-0.3-0.7-0.5-1.3-0.5-1.4
	c0-0.1-0.2-0.4-0.3-0.7c-0.1-0.3-0.2-0.6-0.3-0.7c0-0.1-0.2-0.4-0.3-0.7c-0.4-1.1-0.6-1.6-0.6-1.8c-0.1-0.2-0.3-1-0.7-2
	c-0.2-0.5-0.3-1-0.4-1.1c0-0.1-0.1-0.2-0.1-0.3c0-0.1-0.2-0.6-0.4-1.2c-0.2-0.6-0.5-1.4-0.6-1.8c-0.1-0.4-0.3-0.7-0.3-0.8
	c0-0.1-0.1-0.2-0.1-0.3c0-0.1-0.2-0.6-0.4-1.2c-0.2-0.6-0.5-1.3-0.5-1.5c-0.1-0.4-0.7-2-1.1-3.1c-0.1-0.3-0.3-0.7-0.3-0.9
	c-0.1-0.4-0.5-1.4-0.6-1.5c0-0.1-0.1-0.3-0.2-0.6c-0.1-0.2-0.2-0.4-0.2-0.5c0,0-0.1-0.1-0.1-0.2s0-0.2-0.1-0.3
	c0-0.1-0.2-0.4-0.3-0.7c-0.4-1.2-0.6-1.6-0.6-1.8c-0.1-0.2-0.4-1.1-0.6-1.5c-0.1-0.2-0.2-0.4-0.2-0.6c-0.2-0.5-0.2-0.5-1-2.8
	c-0.2-0.6-0.5-1.4-0.7-1.8c0-0.1-0.1-0.3-0.2-0.4c-0.1-0.1-0.1-0.4-0.2-0.5c-0.1-0.1-0.2-0.4-0.3-0.7c-0.2-0.6-0.3-0.8-0.6-1.3
	c-0.1-0.2-0.2-0.5-0.2-0.5c0,0,0-0.1-0.1-0.2c0-0.1-0.1-0.2-0.2-0.4c-1.3-3-2.6-5.3-3.5-6.3c-0.7-0.8-1.2-1-1.9-1
	c-1.1,0-1.9,0.9-3.2,3.5c-0.2,0.5-0.5,1-0.6,1.2c-0.1,0.1-0.2,0.4-0.3,0.6c-0.1,0.2-0.3,0.7-0.5,1.1c-0.2,0.4-0.3,0.9-0.4,0.9
	c0,0.1-0.2,0.4-0.3,0.7c-0.1,0.3-0.2,0.6-0.3,0.7c0,0.1-0.2,0.4-0.3,0.7c-0.1,0.3-0.3,0.6-0.3,0.8c-0.1,0.1-0.1,0.3-0.1,0.3
	c0,0-0.1,0.2-0.2,0.4c-0.1,0.2-0.2,0.4-0.2,0.5c-0.2,0.6-0.5,1.2-0.9,2c-0.1,0.2-0.5,1.1-0.8,1.9c-0.3,0.8-0.6,1.5-0.7,1.7
	c-0.1,0.1-0.2,0.5-0.4,0.9s-0.3,0.8-0.4,1c-0.1,0.2-0.2,0.4-0.2,0.6c-0.1,0.1-0.2,0.4-0.3,0.7c-0.1,0.3-0.3,0.7-0.4,0.9
	c-0.1,0.2-0.3,0.6-0.4,0.9c-0.4,0.8-2.8,5.6-3.1,6.2c-0.2,0.3-0.4,0.8-0.6,1.1c-0.4,0.7-0.7,1.2-0.9,1.6c-0.1,0.2-0.2,0.4-0.2,0.4
	c0,0-0.1,0.2-0.3,0.5C39,34.8,38.9,35,38.9,35c0,0-0.2,0.3-0.4,0.6c-0.2,0.3-0.4,0.6-0.4,0.6c0,0-0.2,0.4-0.5,0.9S37.1,38,37.1,38
	c0,0.1-0.4,0.7-0.5,0.7c0,0-0.1,0.1-0.1,0.1c0,0.2-1.7,2.7-2.8,4.1c-0.7,1-0.7,1-1.3,1.7c-0.2,0.3-0.5,0.6-0.6,0.7
	c-1,1.3-4.1,4.3-5.9,5.8c-0.2,0.2-0.5,0.4-0.6,0.5L25,52l0.3,0.2c0.9,0.4,2.3,1.7,3.3,3c0.6,0.9,1.6,2.2,1.9,2.8
	c0.1,0.2,0.2,0.4,0.3,0.5c0.2,0.2,1.9,3.6,2.3,4.4c0.1,0.2,0.3,0.7,0.5,1.1c0.2,0.4,0.3,0.7,0.3,0.7s0.1,0.3,0.3,0.7
	c0.2,0.3,0.3,0.7,0.4,0.9c0.1,0.1,0.1,0.3,0.2,0.3s0.1,0.1,0.1,0.2s0.1,0.3,0.2,0.5c0.1,0.2,0.3,0.6,0.4,0.8
	c0.1,0.2,0.2,0.5,0.2,0.5c0,0,0,0.1,0.1,0.2c0.1,0.1,0.1,0.2,0.4,0.8c0.2,0.4,0.2,0.5,0.7,1.6c0.3,0.7,0.4,1,0.5,1
	C37.2,72.2,37.4,72.1,37.7,72L37.7,72z M35.7,75.1c-0.5-0.2-0.7-0.4-1-1.3c0-0.1-0.1-0.2-0.1-0.3c0-0.1-0.2-0.4-0.3-0.7
	c-0.1-0.3-0.3-0.6-0.3-0.8c-0.1-0.1-0.1-0.3-0.1-0.3c0,0-0.1-0.2-0.2-0.4c-0.1-0.2-0.2-0.4-0.2-0.5c0-0.1-0.1-0.3-0.2-0.5
	c-0.1-0.2-0.2-0.4-0.2-0.5c-0.1-0.2-0.3-0.7-0.4-0.9c0-0.1-0.1-0.3-0.2-0.4c-0.2-0.4-0.2-0.5-0.4-0.9C32,67.4,32,67.2,32,67.2
	c0,0-0.1-0.3-0.3-0.6c-0.1-0.3-0.3-0.6-0.3-0.6c0,0-0.1-0.3-0.3-0.7c-0.2-0.4-0.4-0.9-0.5-1.2c-0.5-1.2-2-4-2.3-4.4
	c-0.1-0.1-0.1-0.2-0.1-0.2c0,0-0.1-0.2-0.3-0.5c-0.1-0.2-0.3-0.4-0.3-0.5c0,0,0-0.1-0.1-0.1c0-0.1-0.2-0.3-0.4-0.5
	C26,56.1,25,55,24,54.6c-0.3-0.1-0.5-0.2-1.1-0.2c-1.1,0-1.8,0.3-3.3,1.1c-0.2,0.1-0.4,0.2-0.8,0.2c-0.6,0-0.5,0.1-2.7-1.5
	c-0.8-0.6-1.5-1.1-1.6-1.2c-0.1-0.1-0.8-0.6-1.6-1.2c-0.8-0.6-2.1-1.5-2.8-2c-0.8-0.6-2.1-1.5-2.8-2s-1.5-1.1-1.6-1.2
	c-0.1-0.1-1-0.7-1.9-1.4c-0.9-0.7-2-1.5-2.5-1.8c-1-0.7-1.2-1-1.2-1.6c0-0.5,0.1-0.8,0.5-1.1c0.1-0.1,1.1-0.5,2.3-1
	c1.1-0.5,2.2-0.9,2.4-1c0.2-0.1,0.5-0.2,0.6-0.3c0.2-0.1,0.5-0.2,0.7-0.3C6.8,38,7,38,7,38c0,0,0.1,0,0.2-0.1c0.1,0,0.3-0.1,0.4-0.2
	c0.2-0.1,0.4-0.2,0.5-0.2c0.1,0,0.2-0.1,0.3-0.1c0.2-0.1,0.5-0.2,1-0.4c0.1,0,0.2-0.1,0.3-0.1c0.1,0,0.2-0.1,0.2-0.1
	c0.1,0,0.8-0.3,1.1-0.5c0.1,0,0.2-0.1,0.2-0.1c0,0,0.3-0.1,0.5-0.2c0.2-0.1,2-0.8,3.9-1.6c2-0.8,3.6-1.5,3.8-1.5
	c0.1-0.1,0.4-0.2,0.6-0.3c0.2-0.1,0.6-0.2,0.8-0.3c0.2-0.1,0.4-0.2,0.5-0.2c0,0,0.1,0,0.2-0.1c0.1,0,0.2-0.1,0.3-0.1
	c0.5-0.2,0.8-0.3,0.9-0.4c0.5-0.2,1-0.5,1.1-0.6c0-0.1,0.1-0.2,0.2-0.3c0.1-0.1,0.3-0.4,0.5-0.7c1.2-1.7,3.2-3.8,4.5-4.9
	c0.4-0.3,0.7-0.6,0.8-0.7c0.1-0.1,0.5-0.4,1-0.7c0.9-0.6,1.8-1.1,2.8-1.4c0.1-0.1,0.3-0.1,0.4-0.2c0.2-0.1,0.7-0.3,1-0.4
	c0.9-0.4,1.6-0.7,1.9-0.8c0.8-0.5,2.5-2.1,3.6-3.4c2.1-2.5,6.4-8.8,8.3-12.2C49.1,4.8,50,3.4,50.3,3c0.8-1,2-2.1,2.8-2.5
	C53.6,0.3,54.5,0,54.9,0c0.4,0,1.5,0.2,1.8,0.3c1,0.4,2,1.1,2.8,2.1C59.9,2.8,60.6,4,60.6,4c0,0,0.1,0.2,0.2,0.4
	c0.2,0.4,1.1,2.2,1.4,2.9c0.1,0.1,0.2,0.5,0.4,0.8c0.3,0.6,0.4,1,0.5,1.2c0,0.1,0.1,0.3,0.2,0.5c0.1,0.2,0.2,0.4,0.2,0.5
	c0,0.1,0.1,0.3,0.2,0.4c0.1,0.1,0.3,0.8,0.5,1.4c0.2,0.6,0.5,1.2,0.5,1.4s0.1,0.3,0.2,0.5c0.1,0.1,0.1,0.3,0.2,0.4s0.1,0.3,0.2,0.4
	c0.1,0.1,0.1,0.4,0.2,0.5c0.1,0.1,0.1,0.4,0.2,0.6s0.2,0.4,0.2,0.6c0.2,0.4,0.2,0.5,0.4,1.1c0.1,0.3,0.2,0.6,0.3,0.7
	c0.1,0.1,0.4,1,0.5,1.5c0,0.1,0.1,0.3,0.2,0.5c0.1,0.1,0.2,0.5,0.3,0.8c0.1,0.3,0.3,1,0.5,1.4c0.2,0.5,0.4,1,0.4,1.2
	c0.1,0.2,0.1,0.4,0.2,0.5c0,0.1,0.1,0.3,0.2,0.5c0.1,0.2,0.2,0.4,0.2,0.5c0.1,0.2,0.4,1.1,0.6,1.5c0.1,0.2,0.2,0.6,0.3,0.9
	c0.5,1.4,1,2.7,1.2,3.6c0.2,0.5,0.3,1,0.4,1.1c0,0.1,0.1,0.2,0.1,0.3c0,0.1,0.2,0.6,0.4,1.2c0.2,0.6,0.5,1.5,0.7,2.1
	c0.2,0.5,0.5,1.5,0.7,2.1c0.2,0.6,0.5,1.3,0.5,1.5c0.2,0.6,0.7,2,0.8,2.4c0.1,0.2,0.2,0.6,0.4,1.1c0.3,0.7,0.4,1.2,0.6,1.5
	c0,0.1,0.3,0.7,0.5,1.3c0.4,1,0.9,2.2,1.1,2.8c0,0.1,0.2,0.4,0.3,0.7c0.1,0.3,0.3,0.7,0.3,0.8c0.1,0.2,0.1,0.3,0.1,0.4
	c0,0,0.1,0.2,0.1,0.3c0.1,0.1,0.2,0.4,0.2,0.5c0.1,0.1,0.1,0.3,0.1,0.3c0,0,0.1,0.2,0.2,0.4c0.1,0.2,0.2,0.5,0.3,0.6
	c0.1,0.1,0.1,0.3,0.2,0.5c0,0.1,0.1,0.3,0.1,0.3c0,0.1,0.1,0.3,0.2,0.5c0.1,0.2,0.2,0.4,0.2,0.5c0,0.1,0.1,0.3,0.2,0.5
	c0.1,0.2,0.2,0.5,0.3,0.6c0.1,0.1,0.2,0.4,0.3,0.7c0.1,0.2,0.2,0.5,0.2,0.5c0,0,0.1,0.3,0.3,0.6c0.1,0.3,0.3,0.6,0.3,0.6
	c0,0,0.1,0.2,0.2,0.5c0.1,0.3,0.3,0.6,0.4,0.9c0.4,0.8,1,2.2,1.4,3.1c0.2,0.4,0.2,1-0.1,1.4C83,63.8,82.7,64,82.1,64
	c-0.4,0-0.5,0-1-0.4c-1.6-1-3.7-2.8-6.1-5.1c-1.5-1.5-2.4-2.3-2.8-2.6c-0.2-0.2-0.4-0.3-0.4-0.3c-0.2-0.3-2.8-1.9-3-1.9
	c0,0-0.1,0-0.2-0.1c-0.1-0.1-1-0.4-1.6-0.5c-0.6-0.1-2.1-0.1-2.8,0c-2.5,0.5-4.7,2.1-8.2,5.9c-0.4,0.5-0.8,0.9-0.8,0.9
	c-0.1,0.1-1.6,1.8-1.9,2.2c-1.4,1.7-2.3,2.6-2.9,3.4c-1,1.1-3.7,3.9-4.4,4.5c-0.3,0.2-0.6,0.5-0.7,0.6c-0.4,0.3-1.8,1.4-2,1.6
	c-0.1,0.1-0.2,0.2-0.3,0.2c-0.2,0.2-1.6,1-2.7,1.6c-1.2,0.6-2,0.9-3.2,1.2C36.2,75.3,36.1,75.3,35.7,75.1L35.7,75.1z"/>
</svg>
