<svg xmlns="http://www.w3.org/2000/svg" viewBox="0 0 130 130"><path d="M13,65a17.93,17.93,0,0,1,5.91-13.47,17.7,17.7,0,0,1,13-4.77A18.25,18.25,0,0,1,49.48,66a17.65,17.65,0,0,1-5.82,12.37,17.62,17.62,0,0,1-12.95,4.9A18.26,18.26,0,0,1,13,65Zm14.08-.79v6.35c0,.21,0,.26-.26.26H25.07c-.17,0-.22,0-.22.22v1.09c0,.17,0,.22.22.22H31.2c.17,0,.21,0,.21-.22V71c0-.18,0-.27-.21-.27H29.05c-.17,0-.26,0-.26-.21V65c0-.17,0-.22.22-.22h2.27c.18,0,.22,0,.31.18.31.48.61,1,1,1.4,1.27,1.92,2.54,3.8,3.81,5.73.08.08.13.21.3.21h2.63c.17,0,.21,0,.21-.21V71c0-.17,0-.22-.21-.22H37.71a.31.31,0,0,1-.3-.17c-1.32-2-2.67-3.94-4-5.86-.14-.18-.09-.26.13-.31A4.76,4.76,0,0,0,36,62.75a4.36,4.36,0,0,0,.83-2.89,3.78,3.78,0,0,0-2.32-3.49A8,8,0,0,0,30,55.93a23.25,23.25,0,0,1-2.49.22,10.48,10.48,0,0,1-2.36-.27c-.18,0-.27,0-.27.18v1c0,.08,0,.17.14.21.56,0,1.18.14,1.74.22.27,0,.35.09.35.35Zm1.67-3.71V57.85c0-.22,0-.3.26-.3l1.4-.13c.44,0,.87-.09,1.31-.05a5.06,5.06,0,0,1,1.79.4A2.4,2.4,0,0,1,35,59.6a3,3,0,0,1-.57,2.54,3.48,3.48,0,0,1-1.79,1,9.54,9.54,0,0,1-3.11.22h-.17c-.53,0-.53,0-.53-.57C28.75,62.05,28.75,61.26,28.75,60.48Z" fill="#75aadb"/><path d="M94.83,62.71V56c0-.22,0-.31.26-.27h1.62c.22,0,.26,0,.26.27V69.88c0,1,0,1.92.09,2.84,0,.22,0,.26-.26.26H95.44c-.26,0-.31-.08-.31-.3,0-.53,0-1,0-1.53a.3.3,0,0,0,0-.18c-.09,0-.09.09-.14.13a4.17,4.17,0,0,1-3.58,2.15,4.73,4.73,0,0,1-4.81-3.15A7.31,7.31,0,0,1,87,63.49,4.78,4.78,0,0,1,91.2,61,4.08,4.08,0,0,1,94.83,62.71Zm0,4.37a14.84,14.84,0,0,0,0-1.49A3,3,0,0,0,92.9,63a3.19,3.19,0,0,0-4.24,1.66,6.12,6.12,0,0,0-.44,3.76,4.1,4.1,0,0,0,1.32,2.45,3.21,3.21,0,0,0,5.11-1.7A6.65,6.65,0,0,0,94.83,67.08ZM53.37,70.4a6.84,6.84,0,0,0,1.75.79,6.13,6.13,0,0,0,3.45.09,2.57,2.57,0,0,0,2-2.14,2.64,2.64,0,0,0-1.14-2.72,8.77,8.77,0,0,0-2-1,8.94,8.94,0,0,1-2.8-1.58,4.13,4.13,0,0,1,.75-6.73,6.33,6.33,0,0,1,3.71-.74,7.26,7.26,0,0,1,2.72.61c.34.17.34.17.21.52l-.39,1.18c0,.18-.13.18-.26.09a6.13,6.13,0,0,0-3.94-.57,2.49,2.49,0,0,0-2,1.71,2.4,2.4,0,0,0,.88,2.62,8.51,8.51,0,0,0,2.14,1.1,10.63,10.63,0,0,1,2.36,1.18,4.15,4.15,0,0,1,1.88,3.93,4.36,4.36,0,0,1-3.19,4.11,8.51,8.51,0,0,1-6.38-.52.33.33,0,0,1-.22-.48C53.06,71.41,53.19,70.93,53.37,70.4Zm52-3.19a6.26,6.26,0,0,1,1.49-4.33,5.6,5.6,0,0,1,3.67-1.83,5.73,5.73,0,0,1,3.41.61,5,5,0,0,1,2.54,3,7.25,7.25,0,0,1-.3,5.56,5.26,5.26,0,0,1-4.25,3,5.51,5.51,0,0,1-6.47-4.9,1.57,1.57,0,0,1,0-.43A2.94,2.94,0,0,1,105.32,67.21Zm9.27-.61a5.14,5.14,0,0,0-.78-2.45,3.25,3.25,0,0,0-5.51,0,5.48,5.48,0,0,0-.79,2.75,5.23,5.23,0,0,0,1,3.46,3.13,3.13,0,0,0,5.08,0A5.48,5.48,0,0,0,114.59,66.6ZM81.36,71.1a4.44,4.44,0,0,1-2.28,1.84,4.25,4.25,0,0,1-4-.44,4,4,0,0,1-1.49-2.45,9.26,9.26,0,0,1-.22-1.92V61.48c0-.22.05-.3.31-.3h1.62c.22,0,.26,0,.26.26V67.3a7.29,7.29,0,0,0,.22,2.19A2.55,2.55,0,0,0,80,70.71a3.06,3.06,0,0,0,1.18-2.45V61.39c0-.21,0-.26.26-.26h1.67c.22,0,.26,0,.26.26v8.75c0,.83,0,1.71.09,2.54,0,.17,0,.22-.22.22H81.75c-.17,0-.22-.05-.22-.22A14.17,14.17,0,0,1,81.36,71.1ZM68,58.42V61c0,.22,0,.26.26.26h2.54c.22,0,.26,0,.26.26v1.18c0,.18,0,.22-.22.22H68.33c-.22,0-.31,0-.31.31V69.4a2.92,2.92,0,0,0,.22,1.22,1.28,1.28,0,0,0,1.22.88,3.93,3.93,0,0,0,1.23-.09c.13,0,.22,0,.22.13A12.53,12.53,0,0,0,71,72.81c0,.13,0,.22-.13.22a5.12,5.12,0,0,1-2.93,0,2.63,2.63,0,0,1-1.84-2.32A7.62,7.62,0,0,1,66,69.4V63.14c0-.21,0-.3-.26-.26H64.35c-.18,0-.22,0-.22-.22V61.44c0-.18,0-.22.22-.22h1.39c.18,0,.22,0,.22-.22V59.25c0-.17.05-.26.22-.3C66.75,58.81,67.36,58.6,68,58.42Zm32.49,8.7V61.53c0-.18,0-.27.27-.27h1.7c.18,0,.22.05.22.22V72.85c0,.13,0,.18-.18.18h-1.79c-.22,0-.17-.13-.17-.26V68A5.44,5.44,0,0,1,100.51,67.12Zm1-10.49a1.34,1.34,0,0,1,0,2.67A1.24,1.24,0,0,1,100.21,58,1.3,1.3,0,0,1,101.56,56.63Zm14,0A1.38,1.38,0,1,1,114.2,58,1.34,1.34,0,0,1,115.6,56.63ZM116.74,58a1.14,1.14,0,1,0-1.14,1.1A1.08,1.08,0,0,0,116.74,58Zm-1.66,0v-.35c0-.08,0-.17-.14-.17s-.08-.09-.08-.13.08,0,.13,0h.61a.37.37,0,0,1,.39.27.4.4,0,0,1-.13.48c-.13.08-.13.13,0,.22s.13.35.35.35,0,.08,0,.13a.09.09,0,0,1-.08.08c-.14,0-.27,0-.35-.13l-.27-.39s-.08-.13-.17-.13-.09.13-.09.17,0,.27.18.27,0,.08,0,.13,0,.08-.09.08h-.48s-.09,0-.09-.08,0-.13,0-.13c.3-.05.13-.27.17-.44S115.08,58,115.08,58Zm.26-.39c0,.18,0,.31.17.31s.31,0,.31-.22-.13-.18-.26-.22S115.29,57.5,115.34,57.59Z" fill="#4f4f4f"/></svg>