<svg xmlns="http://www.w3.org/2000/svg" viewBox="0 0 130 130"><path d="M88.9,65c-.5,2.09-2.08,3.65-3.59,3.71a1.61,1.61,0,0,1-1.53-1.31,1.4,1.4,0,0,1,.85-1.77,14.41,14.41,0,0,1,3.81-1C88.67,64.6,88.9,64.6,88.9,65ZM57.21,41.78c-.46-.23-.69.23-.91.52a12.25,12.25,0,0,0-1.37,2.56c-1.14,2.74-2,5.54-2.85,8.33.4.06,3.59-5.3,4.61-8C57,44.41,57.6,42,57.21,41.78ZM106.6,89.35,65.77,113.2a1.06,1.06,0,0,1-1.06,0L23.64,89.77a1.06,1.06,0,0,1-.53-.92l-.24-47.28a1.06,1.06,0,0,1,.53-.92L64.23,16.8a1.06,1.06,0,0,1,1.06,0l41.07,23.44a1.06,1.06,0,0,1,.53.92l.24,47.28A1.06,1.06,0,0,1,106.6,89.35ZM45.65,91.63c.34-.06.29-.52.4-.8a16.58,16.58,0,0,1,2.84-5c3.19-3.65,7.46-5.42,11.9-6.73a52.79,52.79,0,0,1,8.47-1.83C72,77,85.19,76,88.66,73.54c5-3.61,13.39-12.87,13.77-17.06-.05-1-.37-1.35-1.28-.89-1.2.57-1.37,1-3,2.41s-2.57,2.67-4.85,3.73c0-.11,1.82-6.79,2.5-9,.52-1.71.87-3.45,2.24-4.82-3.29-.06-4.63.66-5.31,3.63a23.33,23.33,0,0,1-1.59,4.27A14,14,0,0,1,88.32,60c-.28.23-.57.57-1,.4s-.46-1.71-.4-2.11a18.38,18.38,0,0,1,3.13-8.9c.34-.51.24-1.21-.9-1a6.19,6.19,0,0,0-2.63,1.22c-1.31,1.25-1.48,3-2,4.56a19,19,0,0,1-3.24,6c-.4.4-.84,1.1-1.68.71-.57-.28-.54-1-.43-1.62a47.66,47.66,0,0,1,1.6-6.62c.43-1.61-.4-3-.8-3.08-1-.54-2.69.2-3.35.57a9,9,0,0,0-1.08.78c-1.14,1-.83,1.55-1.79.36A3.15,3.15,0,0,0,71,50a.21.21,0,0,0-.23.22c.34,4.91-3.58,11.13-4.78,12-.68.45-1.36.57-1.59-.29C64.07,60.82,66.3,54,67.9,51c-1.37,0-2.68-.22-3.59,1-1.36,1.77-3.2,8.78-5.23,11.37-.52.52-.56.69-1.65.56-.68-.12-.46-.91-.4-1.37a24.91,24.91,0,0,1,.57-2.91c.4-1.54.91-3.08,1.25-4.62.51-2.17-.74-3.31-2.84-2.8a8.69,8.69,0,0,0-1.9.81s0,0,0-.07a4.83,4.83,0,0,1,.68-1.25c1.65-2.68,3.3-5.31,4-8.45.29-1.08.22-2.31-.91-2.79-3.15-.61-4.46,2.18-4.9,3-1.21,2.24-5.62,17.35-7,21.91-.85,2.91-1.13,2.45,1.88,2.57.74,0,1-.34,1.2-1.09.74-2.79,1.08-5.7,2.21-8.38a7.36,7.36,0,0,1,3-3.6,1.14,1.14,0,0,1,1.2-.11c.4.17.28.63.17.91a37.48,37.48,0,0,0-1.94,8.56,3.11,3.11,0,0,0,1,2.85,2.22,2.22,0,0,0,2.62,0,10.48,10.48,0,0,0,2-1.83c.85-.86,1.08-2.17,2.16-2.85a10.83,10.83,0,0,0,0,1.42c.18,2.31,1.59,2.51,1.77,2.46a2.73,2.73,0,0,0,2.1-.86c.74-.74,1.48-1.6,2.22-2.34.06,0,.17.06.23.06,0,.17-.23,1.41-.23,1.41l3.22.24s1.13-10,5.09-12.89c.17-.06.36-.22.53-.28.91-.34,1.51-.06,1.4,1.13-.06.63-1.82,6.45-2,8.73-.06,1-.06,2.12.91,2.74A2.47,2.47,0,0,0,79.5,64c2.73-2,3.36-5,3.91-4.64.27.08.06,1.07.13,1.52a2.34,2.34,0,0,0,1.27,2.09c1.26.51,5.11-2.42,5.67-3.81a11.57,11.57,0,0,1-1,3.65,47.75,47.75,0,0,0-5.35,1.37c-1.76.68-3,2.68-2.45,4.16a3.77,3.77,0,0,0,3.69,1.9,8.2,8.2,0,0,0,7-6c.12-.4.27-1,.74-1.08,1.64-.4,5.65-4.45,6.12-4,2.14.56-8.16,12.49-14.53,13.48-4.61.71-10,1.51-14.69,1.8-6.71.34-13.42.34-20.14.91a86.5,86.5,0,0,0-9.39,1.31c-3.24.69-12.17,3.82-13.59,4.91C38.65,80.45,45.25,91.74,45.65,91.63ZM41.53,63.51a5.41,5.41,0,0,1-3.13,3.82c-1.08.34-2.45-.4-3.47-1.83a8,8,0,0,1-1.14-3.71c-.06-.28-.06-.62-.4-.74a.65.65,0,0,0-.8.23c-.85,1.2-1.82,2.4-1.36,4.11a3.66,3.66,0,0,0,3.38,3,11.58,11.58,0,0,0,6.21-.86c4.6-2,6.06-6.67,3.21-10.83a28,28,0,0,0-3.75-4.51c-3.67-3.34-.32-8.62,2.9-7a2.25,2.25,0,0,1,1.25,2c.11.8.11,1.94.91,2.17s1.31-.86,1.82-1.49c1.14-1.42,1-2.45-.57-3.42C44,42.85,40,41.84,37.13,45.63c-1.49,2-2.43,4.81-1.41,7.38a25.06,25.06,0,0,0,3.08,4.68C40.1,59.46,41.93,60.94,41.53,63.51Zm24.66-16.1c.06.68.29,1.25,1.14,1.25a1.72,1.72,0,0,0,1.76-1.88A1.18,1.18,0,0,0,68,45.58,1.83,1.83,0,0,0,66.19,47.41Z" fill="#4a8fcc"/><path d="M109.48,38.36,65.31,13.15a1.13,1.13,0,0,0-1.14,0L20.25,38.81a1.11,1.11,0,0,0-.56,1l.25,50.86a1.13,1.13,0,0,0,.58,1l44.17,25.21a1.13,1.13,0,0,0,1.14,0l43.92-25.65a1.11,1.11,0,0,0,.56-1l-.25-50.86A1.13,1.13,0,0,0,109.48,38.36Zm-2.92,50.85L66.09,112.85a1.12,1.12,0,0,1-1.13,0L24.25,89.63a1.15,1.15,0,0,1-.57-1l-.24-46.86a1.14,1.14,0,0,1,.57-1L64.48,17.15a1.12,1.12,0,0,1,1.13,0l40.71,23.22a1.15,1.15,0,0,1,.57,1l.24,46.86A1.14,1.14,0,0,1,106.56,89.21Z" fill="#3a76aa"/></svg>